Hi Friends,


You can download all my torrents from the following address
  
http://thepiratebay.org/search/chirutha/0/7/0


         $$$ After downloading please seed for others to download $$$


I hope all you enjoyed these movies


*********    {In this torrent, It includes Screenshots and Samples}    *********



X-Men United (2003) - Telugu - BRRip by Chirutha



      Format : AVI
      Format/Info : Audio Video Interleave
      File size : 731 MiB
      Duration : 1h 54mn
      Overall bit rate : 891 Kbps
      Writing library : VirtualDub build 32661/release
   Video #0
      ID : 0
      Format : MPEG-4 Visual
      Format profile : AdvancedSimple@L5
      Format settings, BVOP : Yes
      Format settings, QPel : No
      Format settings, GMC : No warppoints
      Format settings, Matrix : Default (H.263)
      Muxing mode : Packed bitstream
      Codec ID : XVID
      Codec ID/Hint : XviD
      Duration : 1h 54mn
      Bit rate : 790 Kbps
      Width : 720 pixels
      Height : 304 pixels
      Display aspect ratio : 2.35:1
      Frame rate : 25.000 fps
      Original frame rate : 23.976 fps
      Resolution : 24 bits
      Colorimetry : 4:2:0
      Scan type : Progressive
      Bits/(Pixel*Frame) : 0.144
      Stream size : 648 MiB (89%)
      Writing library : XviD 1.2.1 (UTC 2008-12-04)
   Audio #1
      ID : 1
      Format : MPEG Audio
      Format version : Version 1
      Format profile : Layer 3
      Codec ID : 55
      Codec ID/Hint : MP3
      Duration : 1h 54mn
      Bit rate mode : Constant
      Bit rate : 96.0 Kbps
      Channel(s) : 1 channel
      Sampling rate : 48.0 KHz
      Resolution : 16 bits
      Stream size : 78.6 MiB (11%)
      Alignment : Split accross interleaves
      Interleave, duration : 21832 ms (545.79 video frames)
      Writing library : LAME3.98r
      Encoding settings : -m m -V 4 -q 2 -lowpass 20.5 -b 96


$$$          After downloading please seed for others to download          $$$